<svg class="rich-terminal" viewBox="0 0 689 220.8" xmlns="http://www.w3.org/2000/svg">
    <!-- Generated with Rich-rs https://github.com/Textualize/rich -->
    <style>

    @font-face {{
        font-family: "Fira Code";
        src: local("FiraCode-Regular"),
                url("https://cdnjs.cloudflare.com/ajax/libs/firacode/6.2.0/woff2/FiraCode-Regular.woff2") format("woff2"),
                url("https://cdnjs.cloudflare.com/ajax/libs/firacode/6.2.0/woff/FiraCode-Regular.woff") format("woff");
        font-style: normal;
        font-weight: 400;
    }}
    @font-face {{
        font-family: "Fira Code";
        src: local("FiraCode-Bold"),
                url("https://cdnjs.cloudflare.com/ajax/libs/firacode/6.2.0/woff2/FiraCode-Bold.woff2") format("woff2"),
                url("https://cdnjs.cloudflare.com/ajax/libs/firacode/6.2.0/woff/FiraCode-Bold.woff") format("woff");
        font-style: bold;
        font-weight: 700;
    }}

    .terminal-488294771-matrix {{
        font-family: Fira Code, monospace;
        font-size: 20px;
        line-height: 24.4px;
        font-variant-east-asian: full-width;
    }}

    .terminal-488294771-title {{
        font-size: 18px;
        font-weight: bold;
        font-family: arial;
    }}

    .terminal-488294771-r5 { fill: #8fa1b3 }
.terminal-488294771-r2 { fill: #656660 }
.terminal-488294771-r7 { fill: #a3be8c }
.terminal-488294771-r4 { fill: #c0c5ce }
.terminal-488294771-r6 { fill: #d9d9d9 }
.terminal-488294771-r1 { fill: #d9d9d9;font-weight: bold }
.terminal-488294771-r8 { fill: #d08770 }
.terminal-488294771-r3 { fill: #b48ead }
    </style>

    <defs>
    <clipPath id="terminal-488294771-clip-terminal">
      <rect x="0" y="0" width="670" height="169.8" />
    </clipPath>
    <clipPath id="terminal-488294771-line-0">
    <rect x="0" y="1.5" width="671" height="24.65"/>
            </clipPath>
<clipPath id="terminal-488294771-line-1">
    <rect x="0" y="25.9" width="671" height="24.65"/>
            </clipPath>
<clipPath id="terminal-488294771-line-2">
    <rect x="0" y="50.3" width="671" height="24.65"/>
            </clipPath>
<clipPath id="terminal-488294771-line-3">
    <rect x="0" y="74.7" width="671" height="24.65"/>
            </clipPath>
<clipPath id="terminal-488294771-line-4">
    <rect x="0" y="99.1" width="671" height="24.65"/>
            </clipPath>
<clipPath id="terminal-488294771-line-5">
    <rect x="0" y="123.5" width="671" height="24.65"/>
            </clipPath>
    </defs>

    <rect fill="#0c0c0c" stroke="rgba(255,255,255,0.35)" stroke-width="1" x="1" y="1" width="687" height="218.8" rx="8"/><text class="terminal-488294771-title" fill="#d9d9d9" text-anchor="middle" x="343.5" y="27">Syntax&#160;Highlighting</text>
            <g transform="translate(26,22)">
            <circle cx="0" cy="0" r="7" fill="#ff5f57"/>
            <circle cx="22" cy="0" r="7" fill="#febc2e"/>
            <circle cx="44" cy="0" r="7" fill="#28c840"/>
            </g>
        
    <g transform="translate(9, 41)" clip-path="url(#terminal-488294771-clip-terminal)">
    <rect fill="#2b303b" x="0" y="1.5" width="24.4" height="24.65" shape-rendering="crispEdges"/><rect fill="#2b303b" x="24.4" y="1.5" width="24.4" height="24.65" shape-rendering="crispEdges"/><rect fill="#2b303b" x="48.8" y="1.5" width="24.4" height="24.65" shape-rendering="crispEdges"/><rect fill="#2b303b" x="73.2" y="1.5" width="12.2" height="24.65" shape-rendering="crispEdges"/><rect fill="#2b303b" x="85.4" y="1.5" width="48.8" height="24.65" shape-rendering="crispEdges"/><rect fill="#2b303b" x="134.2" y="1.5" width="12.2" height="24.65" shape-rendering="crispEdges"/><rect fill="#2b303b" x="146.4" y="1.5" width="12.2" height="24.65" shape-rendering="crispEdges"/><rect fill="#2b303b" x="158.6" y="1.5" width="12.2" height="24.65" shape-rendering="crispEdges"/><rect fill="#2b303b" x="170.8" y="1.5" width="12.2" height="24.65" shape-rendering="crispEdges"/><rect fill="#2b303b" x="183" y="1.5" width="488" height="24.65" shape-rendering="crispEdges"/><rect fill="#2b303b" x="0" y="25.9" width="24.4" height="24.65" shape-rendering="crispEdges"/><rect fill="#2b303b" x="24.4" y="25.9" width="24.4" height="24.65" shape-rendering="crispEdges"/><rect fill="#2b303b" x="48.8" y="25.9" width="48.8" height="24.65" shape-rendering="crispEdges"/><rect fill="#2b303b" x="97.6" y="25.9" width="36.6" height="24.65" shape-rendering="crispEdges"/><rect fill="#2b303b" x="134.2" y="25.9" width="122" height="24.65" shape-rendering="crispEdges"/><rect fill="#2b303b" x="256.2" y="25.9" width="12.2" height="24.65" shape-rendering="crispEdges"/><rect fill="#2b303b" x="268.4" y="25.9" width="12.2" height="24.65" shape-rendering="crispEdges"/><rect fill="#2b303b" x="280.6" y="25.9" width="12.2" height="24.65" shape-rendering="crispEdges"/><rect fill="#2b303b" x="292.8" y="25.9" width="158.6" height="24.65" shape-rendering="crispEdges"/><rect fill="#2b303b" x="451.4" y="25.9" width="12.2" height="24.65" shape-rendering="crispEdges"/><rect fill="#2b303b" x="463.6" y="25.9" width="12.2" height="24.65" shape-rendering="crispEdges"/><rect fill="#2b303b" x="475.8" y="25.9" width="195.2" height="24.65" shape-rendering="crispEdges"/><rect fill="#2b303b" x="0" y="50.3" width="24.4" height="24.65" shape-rendering="crispEdges"/><rect fill="#2b303b" x="24.4" y="50.3" width="24.4" height="24.65" shape-rendering="crispEdges"/><rect fill="#2b303b" x="48.8" y="50.3" width="48.8" height="24.65" shape-rendering="crispEdges"/><rect fill="#2b303b" x="97.6" y="50.3" width="97.6" height="24.65" shape-rendering="crispEdges"/><rect fill="#2b303b" x="195.2" y="50.3" width="12.2" height="24.65" shape-rendering="crispEdges"/><rect fill="#2b303b" x="207.4" y="50.3" width="12.2" height="24.65" shape-rendering="crispEdges"/><rect fill="#2b303b" x="219.6" y="50.3" width="24.4" height="24.65" shape-rendering="crispEdges"/><rect fill="#2b303b" x="244" y="50.3" width="12.2" height="24.65" shape-rendering="crispEdges"/><rect fill="#2b303b" x="256.2" y="50.3" width="12.2" height="24.65" shape-rendering="crispEdges"/><rect fill="#2b303b" x="268.4" y="50.3" width="109.8" height="24.65" shape-rendering="crispEdges"/><rect fill="#2b303b" x="378.2" y="50.3" width="12.2" height="24.65" shape-rendering="crispEdges"/><rect fill="#2b303b" x="390.4" y="50.3" width="12.2" height="24.65" shape-rendering="crispEdges"/><rect fill="#2b303b" x="402.6" y="50.3" width="268.4" height="24.65" shape-rendering="crispEdges"/><rect fill="#2b303b" x="0" y="74.7" width="24.4" height="24.65" shape-rendering="crispEdges"/><rect fill="#2b303b" x="24.4" y="74.7" width="24.4" height="24.65" shape-rendering="crispEdges"/><rect fill="#2b303b" x="48.8" y="74.7" width="12.2" height="24.65" shape-rendering="crispEdges"/><rect fill="#2b303b" x="61" y="74.7" width="610" height="24.65" shape-rendering="crispEdges"/><rect fill="#2b303b" x="0" y="99.1" width="24.4" height="24.65" shape-rendering="crispEdges"/><rect fill="#2b303b" x="24.4" y="99.1" width="24.4" height="24.65" shape-rendering="crispEdges"/><rect fill="#2b303b" x="48.8" y="99.1" width="0" height="24.65" shape-rendering="crispEdges"/><rect fill="#2b303b" x="48.8" y="99.1" width="622.2" height="24.65" shape-rendering="crispEdges"/>
    <g class="terminal-488294771-matrix">
    <text class="terminal-488294771-r2" x="24.4" y="20" textLength="24.4" clip-path="url(#terminal-488294771-line-0)">1&#160;</text>
<text class="terminal-488294771-r3" x="48.8" y="20" textLength="24.4" clip-path="url(#terminal-488294771-line-0)">fn</text>
<text class="terminal-488294771-r5" x="85.4" y="20" textLength="48.8" clip-path="url(#terminal-488294771-line-0)">main</text>
<text class="terminal-488294771-r4" x="134.2" y="20" textLength="12.2" clip-path="url(#terminal-488294771-line-0)">(</text>
<text class="terminal-488294771-r4" x="146.4" y="20" textLength="12.2" clip-path="url(#terminal-488294771-line-0)">)</text>
<text class="terminal-488294771-r4" x="170.8" y="20" textLength="12.2" clip-path="url(#terminal-488294771-line-0)">{</text>
<text class="terminal-488294771-r2" x="24.4" y="44.4" textLength="24.4" clip-path="url(#terminal-488294771-line-1)">2&#160;</text>
<text class="terminal-488294771-r3" x="97.6" y="44.4" textLength="36.6" clip-path="url(#terminal-488294771-line-1)">let</text>
<text class="terminal-488294771-r4" x="134.2" y="44.4" textLength="122" clip-path="url(#terminal-488294771-line-1)">&#160;greeting&#160;</text>
<text class="terminal-488294771-r4" x="256.2" y="44.4" textLength="12.2" clip-path="url(#terminal-488294771-line-1)">=</text>
<text class="terminal-488294771-r4" x="280.6" y="44.4" textLength="12.2" clip-path="url(#terminal-488294771-line-1)">"</text>
<text class="terminal-488294771-r7" x="292.8" y="44.4" textLength="158.6" clip-path="url(#terminal-488294771-line-1)">Hello,&#160;World!</text>
<text class="terminal-488294771-r4" x="451.4" y="44.4" textLength="12.2" clip-path="url(#terminal-488294771-line-1)">"</text>
<text class="terminal-488294771-r4" x="463.6" y="44.4" textLength="12.2" clip-path="url(#terminal-488294771-line-1)">;</text>
<text class="terminal-488294771-r2" x="24.4" y="68.8" textLength="24.4" clip-path="url(#terminal-488294771-line-2)">3&#160;</text>
<text class="terminal-488294771-r4" x="97.6" y="68.8" textLength="97.6" clip-path="url(#terminal-488294771-line-2)">println!</text>
<text class="terminal-488294771-r4" x="195.2" y="68.8" textLength="12.2" clip-path="url(#terminal-488294771-line-2)">(</text>
<text class="terminal-488294771-r4" x="207.4" y="68.8" textLength="12.2" clip-path="url(#terminal-488294771-line-2)">"</text>
<text class="terminal-488294771-r8" x="219.6" y="68.8" textLength="24.4" clip-path="url(#terminal-488294771-line-2)">{}</text>
<text class="terminal-488294771-r4" x="244" y="68.8" textLength="12.2" clip-path="url(#terminal-488294771-line-2)">"</text>
<text class="terminal-488294771-r4" x="256.2" y="68.8" textLength="12.2" clip-path="url(#terminal-488294771-line-2)">,</text>
<text class="terminal-488294771-r4" x="268.4" y="68.8" textLength="109.8" clip-path="url(#terminal-488294771-line-2)">&#160;greeting</text>
<text class="terminal-488294771-r4" x="378.2" y="68.8" textLength="12.2" clip-path="url(#terminal-488294771-line-2)">)</text>
<text class="terminal-488294771-r4" x="390.4" y="68.8" textLength="12.2" clip-path="url(#terminal-488294771-line-2)">;</text>
<text class="terminal-488294771-r2" x="24.4" y="93.2" textLength="24.4" clip-path="url(#terminal-488294771-line-3)">4&#160;</text>
<text class="terminal-488294771-r4" x="48.8" y="93.2" textLength="12.2" clip-path="url(#terminal-488294771-line-3)">}</text>
<text class="terminal-488294771-r2" x="24.4" y="117.6" textLength="24.4" clip-path="url(#terminal-488294771-line-4)">5&#160;</text>
    </g>
    </g>
</svg>
